<svg width="16" height="21" viewBox="0 0 16 21" fill="none" xmlns="http://www.w3.org/2000/svg">
<path d="M7.961 20C7.74026 19.9145 7.60626 19.7495 7.48395 19.5607C5.7078 16.8234 3.93312 14.0847 2.14528 11.3544C1.26671 10.0124 0.867134 8.56545 1.03914 6.98971C1.19118 5.59246 1.7574 4.35744 2.72758 3.29625C3.53208 2.41635 4.51104 1.77815 5.66492 1.38724C6.78031 1.00934 7.92445 0.904759 9.0915 1.0879C11.0738 1.3984 12.6477 2.35174 13.7796 3.92515C14.837 5.39491 15.1976 7.03247 14.8989 8.79739C14.7523 9.66288 14.4194 10.4605 13.9487 11.2098C12.1974 13.9973 10.4461 16.7853 8.69875 19.5752C8.58229 19.7611 8.44828 19.9177 8.23388 19.9995C8.14227 20 8.05163 20 7.961 20ZM8.08818 18.362C8.1179 18.3215 8.13398 18.3025 8.14714 18.2811C9.76784 15.7 11.3963 13.123 13.0058 10.5353C13.8893 9.11533 14.0822 7.59397 13.5662 6.0187C12.6808 3.31345 9.85653 1.70099 6.93332 2.20114C4.44574 2.62691 2.49125 4.62145 2.20083 7.0334C2.03905 8.3758 2.37576 9.60246 3.12277 10.7441C4.74542 13.2234 6.3554 15.7097 7.97075 18.1932C8.00485 18.2453 8.0414 18.295 8.08818 18.362ZM7.99462 11.0178C6.06206 11.0136 4.49593 9.516 4.49885 7.67439C4.50178 5.83742 6.08155 4.33466 8.00534 4.33838C9.93206 4.34256 11.5045 5.84811 11.5006 7.68461C11.4972 9.52762 9.92524 11.022 7.99462 11.0178ZM7.99511 9.90831C9.2869 9.91063 10.3311 8.91964 10.335 7.6874C10.3394 6.45749 9.29762 5.45348 8.01168 5.44837C6.71502 5.44279 5.66054 6.44447 5.66151 7.68089C5.66297 8.91266 6.70332 9.90598 7.99511 9.90831Z" fill="white" stroke="white"/>
</svg>
